<svg width="33" height="35" viewBox="0 0 33 35" fill="none" xmlns="http://www.w3.org/2000/svg">
    <rect x="33" y="2.02701" width="25" height="2.02703" rx="1.01351" transform="rotate(-180 33 2.02701)" fill="white"/>
    <rect x="30.9167" y="25" width="24.3243" height="2.08333" rx="1.04167" transform="rotate(-90 30.9167 25)" fill="white"/>
    <rect x="33" y="25" width="25" height="2.02703" rx="1.01351" transform="rotate(-180 33 25)" fill="white"/>
    <rect x="8" y="24.3243" width="24.3243" height="2.08333" rx="1.04167" transform="rotate(-90 8 24.3243)" fill="white"/>
    <rect x="25" y="12.027" width="25" height="2.02703" rx="1.01351" transform="rotate(-180 25 12.027)" fill="white"/>
    <rect x="22.9167" y="35" width="24.3243" height="2.08333" rx="1.04167" transform="rotate(-90 22.9167 35)" fill="white"/>
    <rect x="25" y="35" width="25" height="2.02703" rx="1.01351" transform="rotate(-180 25 35)" fill="white"/>
    <rect y="34.3243" width="24.3243" height="2.08333" rx="1.04167" transform="rotate(-90 0 34.3243)" fill="white"/>
</svg>